    <svg xmlns="http://www.w3.org/2000/svg">
      <symbol viewBox="0 0 36 50" id="small-cat-icon">
        <g clip-path="url(#clip0_135_3256)">
          <path
            d="M28.2034 0H28.008C27.6778 0.187081 27.415 0.473924 27.2571 0.819588C26.968 1.37738 26.7453 1.96735 26.5937 2.57732C26.5612 2.76073 26.4688 2.92811 26.331 3.05315C26.1932 3.17818 26.0179 3.25377 25.8326 3.26804C25.2658 3.36597 24.7288 3.59243 24.2626 3.93012C23.7965 4.26781 23.4135 4.7078 23.1429 5.21649C22.7708 5.87697 22.4526 6.5665 22.1914 7.27835C21.4611 9.17526 20.9006 11.134 20.2114 13.0464C19.8874 13.9175 19.872 13.9175 18.8949 13.9175C17.7274 13.9175 17.8097 13.7371 17.7943 15.0258C17.7943 15.433 17.9177 15.6392 18.3497 15.6186C18.4834 15.6186 18.684 15.5515 18.7354 15.7268C18.7869 15.9021 18.612 15.9794 18.5091 16.0825C17.8994 16.7029 17.1276 17.1388 16.2823 17.3402C15.3051 17.6031 14.3074 17.8093 13.356 18.1289C10.9131 18.9485 8.65543 20.0928 6.89657 22.0309C5.86814 23.2347 5.04455 24.6001 4.45886 26.0722C2.57143 30.5258 1.656 35.2165 0.946286 39.9536C0.612 42.1753 0.375429 44.4072 0.195429 46.6546C0.102857 47.7577 0 48.8763 0 50H17.1411C17.1696 49.7731 17.1283 49.5429 17.0229 49.3402C16.858 48.9289 16.5901 48.5672 16.2451 48.29C15.9 48.0128 15.4895 47.8295 15.0531 47.7577C14.6931 47.6753 14.652 47.567 14.8731 47.2835C15.2338 46.801 15.5103 46.2607 15.6909 45.6856C16.5291 43.2062 16.8531 40.6186 17.2594 38.0567C17.4889 36.0999 18.0894 34.2051 19.0286 32.4742C19.7611 31.2002 20.7382 30.0842 21.9034 29.1907C22.3303 28.866 22.3457 28.866 22.4177 29.4175C22.4691 29.7835 22.4794 30.1598 22.5051 30.5309C22.6595 32.9662 22.6285 35.4097 22.4126 37.8402C22.2184 39.7242 22.1926 41.6217 22.3354 43.5103C22.5399 45.7029 22.9304 47.8739 23.5029 50H30.3429C30.2536 49.442 29.9973 48.9243 29.6078 48.5156C29.2184 48.1069 28.7143 47.8264 28.1623 47.7113C27.5177 47.6087 26.8587 47.6438 26.2286 47.8144C25.92 47.8866 25.7914 47.8144 25.7657 47.4794C25.5529 44.7505 25.7261 42.0051 26.28 39.3247C26.966 36.2304 27.4912 33.1025 27.8537 29.9536C27.9887 28.6819 28.3881 27.4528 29.0263 26.3454C29.6383 25.2526 30.1731 24.1186 30.7749 23.0206C31.0138 22.6214 31.1575 22.1723 31.195 21.7083C31.2325 21.2443 31.1626 20.7779 30.9909 20.3454C30.852 19.9794 30.7183 19.6082 30.5486 19.2577C30.0343 18.2526 29.52 17.2577 29.0469 16.2423C28.7949 15.7268 28.8514 15.6649 29.412 15.6495C30.2503 15.6495 30.2503 15.6495 30.2657 14.8041C30.2657 14.6907 30.2657 14.5773 30.2657 14.4639C30.2657 14.1082 30.132 13.9124 29.7514 13.9485C29.4943 13.9485 29.2371 13.9485 28.9697 13.9485C28.6149 13.9485 28.512 13.799 28.5994 13.433C28.7729 12.838 29.1142 12.306 29.5823 11.9009C30.0503 11.4958 30.6252 11.2349 31.2377 11.1495C32.3772 11.0505 33.5251 11.1252 34.6423 11.3711C34.7712 11.4118 34.9109 11.4001 35.0312 11.3383C35.1515 11.2766 35.2427 11.1699 35.2851 11.0412C35.4909 10.5258 35.7171 10.0103 35.9486 9.49484C36.001 9.40339 36.0242 9.29801 36.015 9.19293C36.0058 9.08785 35.9647 8.98812 35.8971 8.90722C34.2514 6.81443 32.4669 4.86082 30.0343 3.60825C29.9168 3.55754 29.8138 3.47814 29.7347 3.3773C29.6557 3.27646 29.6031 3.15738 29.5817 3.03093C29.444 2.29408 29.225 1.57487 28.9286 0.886598C28.7895 0.519904 28.5349 0.20865 28.2034 0V0Z"
            fill="black"
          />
        </g>
      </symbol>
      <symbol viewBox="0 0 67 28" id="strong-cat-icon">
        <g clip-path="url(#clip0_135_3258)">
          <path
            d="M61.55 2.89997C62.1272 1.98151 62.8944 1.19727 63.8 0.599973C64.3 0.249973 64.6 0.249973 64.9 0.899973C65.3 1.84997 65.65 2.84997 65.35 3.89997C65.2954 4.07806 65.2851 4.26677 65.3199 4.44974C65.3548 4.63272 65.4338 4.80442 65.55 4.94997C65.85 5.34997 66.1 5.74997 66.35 6.09997C66.6902 6.53186 66.9109 7.04563 66.9899 7.58974C67.0689 8.13385 67.0034 8.68917 66.8 9.19997C66.6164 9.69588 66.5817 10.2346 66.7 10.75C66.7999 11.245 66.7999 11.755 66.7 12.25C66.6596 12.6207 66.5095 12.9709 66.2691 13.2559C66.0286 13.5409 65.7086 13.7478 65.35 13.85C64.7104 13.9717 64.1396 14.3284 63.75 14.85C63.7028 14.9268 63.6365 14.9901 63.5577 15.0339C63.4789 15.0777 63.3901 15.1005 63.3 15.1C62.7 15.2 61.2 13.85 61.2 13.25V12.95C61.25 11.15 61.15 11 59.5 10.25C59.1546 10.1282 58.8452 9.92192 58.6 9.64997C58.3 9.24997 57.9 9.29997 57.45 9.44997C57 9.59997 56.75 9.89997 56.8 10.4C56.9508 11.6104 57.0009 12.8313 56.95 14.05C56.9533 14.1891 56.9875 14.3257 57.05 14.45C58.6 16.7 59.2 19.35 59.95 21.9C60.55 23.85 61.65 24.9 63.65 25.05C63.97 25.0755 64.2876 25.1257 64.6 25.2C65.0109 25.266 65.3926 25.4538 65.6956 25.739C65.9987 26.0242 66.2092 26.3938 66.3 26.8C66.65 27.85 66.45 28.1 65.4 28.1H62.15C61.7292 28.1213 61.3167 27.9778 61 27.7C60.4939 27.2729 59.9191 26.9348 59.3 26.7C58.6155 26.4473 58.0231 25.9943 57.6 25.4C57.0143 24.5817 56.3439 23.8275 55.6 23.15C54.2 21.7 52.7 20.3 51.4 18.8C50.4103 17.7779 49.8395 16.4221 49.8 15C49.8 14.55 49.7 14.35 49.2 14.55C49.0503 14.645 48.8773 14.6969 48.7 14.7C47.3 14.7 46.6 15.55 46.1 16.8C45.65 17.85 45.05 18.85 44.5 19.9C44.1881 20.5572 44.0178 21.2727 44 22C44 23.2 44.3 23.6 45.4 24C46.1 24.25 46.75 24.5 47.1 25.2C47.5 26 47.4 26.2 46.55 26.25H43.15C42.954 26.2694 42.7568 26.2267 42.5864 26.1281C42.4159 26.0294 42.2807 25.8796 42.2 25.7L41.3 24.2C41.0347 23.8086 40.8648 23.3605 40.8041 22.8916C40.7433 22.4227 40.7932 21.9461 40.95 21.5C41.1664 20.6317 41.1835 19.7258 41 18.85C40.8739 18.24 40.8848 17.6097 41.0318 17.0045C41.1788 16.3993 41.4582 15.8342 41.85 15.35C42.15 15 42.15 14.85 41.65 14.75C39.6054 14.3157 37.6233 13.627 35.75 12.7C35.7367 12.7 35.724 12.6947 35.7146 12.6853C35.7052 12.676 35.7 12.6632 35.7 12.65C34.1 12.05 33.8 12.15 33.35 13.8C32.95 15.2 32.55 16.6 32.25 18.05C31.9 19.65 32.3 21.15 32.8 22.65C33 23.25 33.6 23.2 34.05 23.35C35.05 23.65 35.9 24.05 36.3 25.1C36.65 25.9 36.6 26 35.75 26C34.9 26 34.05 25.95 33.15 26C32.3905 26.0137 31.6493 25.7667 31.05 25.3C28.65 23.7 27.95 21.25 27.75 18.6C27.65 16.95 26.75 15.65 25.7 14.4C25.5 14.15 25.3 14.05 25 14.25C23.9267 14.8418 22.8062 15.3435 21.65 15.75C19.2371 16.602 17.1198 18.1292 15.55 20.15C14.9638 20.8875 14.5842 21.7675 14.45 22.7C14.3 23.6 14.55 24 15.45 24.25C16.35 24.5 16.8 25 16.9 25.95C16.95 26.35 16.8 26.55 16.4 26.55H12.35C12.2174 26.5406 12.0891 26.4993 11.9759 26.4297C11.8628 26.36 11.7681 26.2641 11.7 26.15C11.0719 25.3724 10.7358 24.3995 10.75 23.4C10.7237 21.6724 10.8745 19.9468 11.2 18.25C11.2667 17.7418 11.4564 17.2576 11.7527 16.8394C12.0489 16.4212 12.4427 16.0815 12.9 15.85C15.85 14.45 17.4 11.8 18.8 9.04997C19.1 8.49997 18.85 8.39997 18.35 8.44997C16.9506 8.64424 15.6248 9.19523 14.5 10.05C13.0271 11.1244 11.6396 12.3113 10.35 13.6C8.9748 14.9968 7.15133 15.8643 5.19998 16.05C1.54998 16.25 -0.150021 14.2 -2.12286e-05 10.9C0.03351 9.77477 0.457802 8.69636 1.19998 7.84997C1.45799 7.51547 1.80985 7.26546 2.21061 7.13188C2.61138 6.99829 3.04287 6.98718 3.44998 7.09997C4.19998 7.29997 4.39998 7.69997 4.09998 8.44997C3.94998 8.74997 3.74998 8.99997 3.59998 9.29997C3.38428 9.60645 3.21574 9.94353 3.09998 10.3C2.54998 11.8 3.29998 12.85 4.84998 13C6.49998 13.15 7.84998 12.45 9.09998 11.45C10.6059 10.2441 11.9503 8.84929 13.1 7.29997C13.9596 6.16868 15.042 5.22562 16.2804 4.52904C17.5188 3.83245 18.8868 3.39714 20.3 3.24997C21.45 3.09997 22.45 2.59997 23.55 2.29997C25.6072 1.67278 27.7495 1.36915 29.9 1.39997C30.896 1.44145 31.8883 1.25327 32.8 0.849973C35.25 -0.150027 37.8 -0.150028 40.35 0.349973C42.35 0.749973 44.35 1.24997 46.3 1.74997C47.4605 1.96621 48.6537 1.93212 49.8 1.64997C51.9943 1.09374 54.2389 0.758734 56.5 0.649973C57.9812 0.577906 59.4576 0.869742 60.8 1.49997C61.8 1.94997 61.8 1.94997 61.55 2.89997Z"
            fill="black"
          />
        </g>
      </symbol>
      <symbol viewBox="0 0 25 28" id="foliage">
        <path
          d="M24.8437 0.767C24.7434 0.317 24.3647 0 23.9325 0C23.9306 0 23.9287 0 23.9269 0C18.9891 0.033 6.98155 0.916 2.13374 8.38C-0.384387 12.258 -0.600949 17.293 1.48968 23.345C1.50561 23.392 1.53843 23.424 1.55999 23.467C0.8128 25.44 0.523113 26.753 0.515613 26.79C0.406863 27.33 0.730301 27.862 1.23655 27.978C1.30218 27.993 1.3678 28 1.43343 28C1.86561 28 2.25468 27.679 2.34936 27.21C2.36905 27.108 4.7578 16.837 13.2028 10.832C13.6341 10.526 13.7503 9.905 13.4625 9.445C13.1747 8.985 12.5934 8.86 12.1622 9.168C7.37343 12.573 4.42405 17.176 2.68968 20.824C1.44843 16.246 1.77374 12.447 3.67593 9.519C7.41936 3.755 16.2984 2.365 21.6581 2.071C20.505 3.872 19.245 7.174 19.245 13C19.245 16.12 18.4153 18.522 16.7803 20.14C14.1591 22.731 9.90093 22.974 6.78655 22.724C6.26905 22.679 5.81999 23.095 5.78061 23.646C5.74124 24.196 6.12843 24.676 6.64405 24.718C7.26749 24.769 7.93311 24.8 8.62499 24.8C11.7956 24.8 15.4941 24.137 18.0544 21.606C20.0887 19.595 21.12 16.7 21.12 13.001C21.12 3.902 24.3356 1.905 24.3516 1.896C24.7416 1.687 24.9459 1.219 24.8437 0.767Z"
          fill="white"
        />
      </symbol>
      <symbol viewBox="0 0 25 30" id="tableware">
        <path
          fill-rule="evenodd"
          clip-rule="evenodd"
          d="M19.117.076a1 1 0 0 1 1.09.217c.909.908 2.097 2.878 3.059 5.918C24.237 9.28 25 13.508 25 19a1 1 0 0 1-1 1h-3.5v9a1 1 0 1 1-2 0V1a1 1 0 0 1 .617-.924ZM20.5 18h2.491c-.086-4.816-.786-8.512-1.632-11.186-.278-.88-.57-1.643-.859-2.295V18ZM6.5 0a1 1 0 0 1 1 1v28a1 1 0 1 1-2 0V1a1 1 0 0 1 1-1Z"
          fill="#fff"
        />
        <path
          fill-rule="evenodd"
          clip-rule="evenodd"
          d="M2 0a1 1 0 0 1 1 1v5.5c0 .557.192 1.315.7 1.917.48.566 1.314 1.083 2.8 1.083a1 1 0 1 1 0 2c-2.015 0-3.43-.733-4.326-1.792A5.068 5.068 0 0 1 1 6.5V1a1 1 0 0 1 1-1Z"
          fill="#fff"
        />
        <path
          fill-rule="evenodd"
          clip-rule="evenodd"
          d="M11 0a1 1 0 0 0-1 1v5.5a3.07 3.07 0 0 1-.7 1.917C8.82 8.983 7.984 9.5 6.5 9.5a1 1 0 0 0 0 2c2.014 0 3.43-.733 4.326-1.792A5.068 5.068 0 0 0 12 6.5V1a1 1 0 0 0-1-1Z"
          fill="#fff"
        />
      </symbol>
      <symbol viewBox="0 0 32 33" fill="none" id="water">
        <path
          d="M20.776 18.473c-1.706 0-3.088 1.479-3.088 3.301 0 1.824 1.383 3.302 3.088 3.302 1.706 0 3.088-1.478 3.088-3.302 0-1.823-1.383-3.3-3.088-3.3Zm0 5.013c-.884 0-1.6-.766-1.6-1.71 0-.947.716-1.713 1.6-1.713.884 0 1.602.766 1.602 1.712 0 .945-.718 1.711-1.602 1.711ZM11.607-.01c-1.76 0-3.187 1.525-3.187 3.407 0 1.882 1.426 3.407 3.187 3.407 1.76 0 3.187-1.524 3.187-3.407S13.367-.01 11.607-.01Zm0 5.476c-1.07 0-1.936-.926-1.936-2.07 0-1.142.867-2.069 1.935-2.069 1.07 0 1.936.927 1.936 2.07 0 1.143-.866 2.069-1.936 2.069ZM8.227 17.61c-1.294 0-2.341 1.12-2.341 2.503s1.047 2.503 2.34 2.503c1.295 0 2.342-1.12 2.342-2.503 0-1.382-1.047-2.503-2.341-2.503ZM8 19.5c-.459 0 1.158 1.104 1.158.613 0-.49-1.617.387-1.158.387.459 0 1.057-.877 1.057-.388 0 .49-.598-.612-1.057-.612ZM18.5 9.763s3.04-.839 6.178 1.494c.907.76 1.765 1.336 1.152 2.122-.343.34-.637.657-1.716-.524-1.053-.76-2.72-1.898-5.614-1.442-1.128.237-1.961.551-3.556 2.15-1.593 1.598-3.972 2.725-6.497 2.489-2.525-.236-3.849-1.258-5.246-2.542-.294-.42-.294-.865-.123-1.127.171-.262.833-.524 1.201-.132.368.394 2.109 1.966 3.825 2.07 1.716.105 3.433.21 5.737-1.965 2.306-2.174 3.458-2.331 4.66-2.593Z"
          fill="#fff"
        />
        <mask id="a" fill="#fff">
          <path
            d="M28.646 26.816V8.157c0-.578-.374-.65-.524-.655h-.506c-.493 0-.536.557-.538.739V8.3c.002 3.609.01 18.254-.002 18.54a2.681 2.681 0 0 1-.82 1.887c-.809.695-1.618.603-1.618.603s-20.177 0-20.655-.026c-.38-.066-1.042-.21-1.606-1.01-.564-.798-.453-1.847-.453-1.847V8.315c0-.839-.675-.812-.675-.812H.942c-.536 0-.585.588-.588.776v18.537c0 1.337.453 2.398 1.548 3.337 1.094.939 2.375.856 2.375.856s19.723 0 20.581-.002c.859-.003 1.986-.417 2.916-1.556.93-1.138.872-2.635.872-2.635Z"
          />
        </mask>
        <path
          d="M28.646 26.816V8.157c0-.578-.374-.65-.524-.655h-.506c-.493 0-.536.557-.538.739V8.3c.002 3.609.01 18.254-.002 18.54a2.681 2.681 0 0 1-.82 1.887c-.809.695-1.618.603-1.618.603s-20.177 0-20.655-.026c-.38-.066-1.042-.21-1.606-1.01-.564-.798-.453-1.847-.453-1.847V8.315c0-.839-.675-.812-.675-.812H.942c-.536 0-.585.588-.588.776v18.537c0 1.337.453 2.398 1.548 3.337 1.094.939 2.375.856 2.375.856s19.723 0 20.581-.002c.859-.003 1.986-.417 2.916-1.556.93-1.138.872-2.635.872-2.635Z"
          fill="#fff"
        />
        <path
          d="M28.646 26.816h-20v.387l.015.387 19.985-.774Zm-.524-19.314.71-19.987-.355-.013h-.355v20Zm-1.044.739-20-.15v.15h20Zm0 .06h-20v.008l20-.008Zm-.002 18.54-19.985-.758v.013l19.985.745Zm-.82 1.887 13.039 15.165.431-.37.41-.396-13.88-14.399Zm-1.618.603 2.26-19.872-1.127-.128h-1.133v20Zm-20.655-.026L.588 49.015l1.134.195 1.148.064 1.113-19.97Zm-1.606-1.01-16.344 11.528.004.006 16.34-11.533Zm-.453-1.847 19.89 2.098.11-1.046v-1.052h-20ZM1.249 7.503v20h.388l.388-.015-.776-19.985Zm-.895.776-19.998-.289-.002.145v.144h20Zm1.548 21.874L-11.124 45.33 1.903 30.153Zm2.375.856v-20h-.643l-.64.041 1.283 19.96Zm23.497-1.558 15.49 12.654.005-.008-15.495-12.646Zm20.872-2.635V8.157h-40v18.659h40Zm0-18.659c0-4.97-1.859-11.419-7.618-16.084-4.89-3.96-10.03-4.481-12.196-4.558l-1.42 39.974a19.461 19.461 0 0 1-11.56-4.332c-5.535-4.483-7.206-10.608-7.206-15h40ZM28.122-12.498h-.506v40h.506v-40Zm-.506 0a20.47 20.47 0 0 0-12.283 4.083A20.526 20.526 0 0 0 8.914-.38 21.134 21.134 0 0 0 7.079 8.09l39.999.299c-.006.733-.014 3.914-1.667 7.598a19.474 19.474 0 0 1-6.096 7.61 19.53 19.53 0 0 1-11.699 3.904v-40ZM7.078 8.241V8.292h40V8.24h-40Zm0 .05V8.302h40V8.291h-40Zm0 .018.004 10.511a8359.273 8359.273 0 0 1-.002 7.252c-.002.788-.006.45.01.011L47.063 27.6c.02-.51.018-1.37.018-1.45l.002-1.808v-5.528c0-4.15-.003-8.719-.004-10.52l-40 .016Zm.012 17.787c.05-1.35.384-7.042 5.285-11.767l27.761 28.798c6.396-6.166 6.852-13.536 6.927-15.54L7.09 26.096Zm6.126-12.533a17.513 17.513 0 0 1 7.807-3.843 17.962 17.962 0 0 1 4.628-.362 19.227 19.227 0 0 1 1.172.093l.037.004.019.002c.01.001.019.002-2.241 19.874-2.26 19.872-2.25 19.873-2.241 19.874l.018.003c.013 0 .025.002.038.004a14.8 14.8 0 0 0 .553.053 20.798 20.798 0 0 0 2.275.064 22.044 22.044 0 0 0 3.983-.468 22.487 22.487 0 0 0 10.03-4.968l-26.078-30.33Zm11.422 15.768v-20h-.866a17598.02 17598.02 0 0 1-16.322-.01l-2.357-.007c-1.071-.005-.613-.013.002.022L2.87 49.274c.97.054 7.17.051 11.606.054l6.997.003h3.164v-20ZM7.377 9.595c.432.074 2.526.427 4.938 1.653a17.618 17.618 0 0 1 6.401 5.514L-13.963 39.83c4.995 7.076 11.877 8.725 14.551 9.186l6.789-39.42Zm11.344 7.173c2.348 3.33 2.908 6.51 3.08 7.955a16.586 16.586 0 0 1 .049 3.439 21.707 21.707 0 0 1-.027.29l-.005.047-.002.024a.58.58 0 0 0-.002.012c0 .005 0 .011-19.89-2.087-19.89-2.098-19.89-2.092-19.891-2.086l-.002.012-.002.024-.005.05a31.336 31.336 0 0 0-.03.31 21.677 21.677 0 0 0-.077 1.585c-.011.81.016 1.863.16 3.08.257 2.169 1.043 6.27 3.956 10.4L18.72 16.768Zm3.203 9.68V8.315h-40v18.133h40Zm0-18.133c0-6.89-3.412-14.004-10.265-17.999a20.69 20.69 0 0 0-11.136-2.8H.498c-.012.001-.024.002.751 19.987.776 19.985.763 19.985.751 19.985l-.024.001-.05.002a28.652 28.652 0 0 1-.3.008 19.375 19.375 0 0 1-10.112-2.626 19.387 19.387 0 0 1-7.239-7.434 19.028 19.028 0 0 1-2.351-9.124h40ZM1.248-12.497H.942v40h.307v-40Zm-.307 0c-4.037 0-8.32 1.191-12.061 3.905a20.562 20.562 0 0 0-6.553 7.946 21.166 21.166 0 0 0-1.972 8.636l39.996.578c-.011.758-.045 3.996-1.784 7.718a19.438 19.438 0 0 1-6.2 7.5A19.477 19.477 0 0 1 .942 27.503v-40ZM-19.646 8.279V26.816h40V8.279h-40Zm0 18.537c0 7.063 2.92 13.705 8.522 18.514l26.052-30.354c1.294 1.111 2.854 2.871 3.993 5.373a15.715 15.715 0 0 1 1.433 6.467h-40Zm8.523 18.514A23.586 23.586 0 0 0-.643 50.5a23.616 23.616 0 0 0 5.087.51 21.335 21.335 0 0 0 .991-.034l.063-.004.03-.002h.016c.008-.001.016-.002-1.267-19.96C2.994 11.05 3 11.05 3.009 11.05l.015-.002.03-.001a537.278 537.278 0 0 1 .185-.01 19.742 19.742 0 0 1 .755-.025c.342-.004.702.002 1.077.021.737.037 1.607.13 2.571.334 1.88.398 4.642 1.34 7.285 3.609l-26.05 30.354Zm15.4-14.32v20H7.372l6.875-.001c5.007 0 10.202 0 10.668-.002l-.113-40H23.72l-2.443.001-7.033.001H4.278v20Zm20.638 19.997c7.104-.02 13.8-3.336 18.348-8.902L12.286 16.799c2.687-3.29 7.129-5.777 12.516-5.792l.113 40Zm18.354-8.91c3.245-3.977 4.434-8.096 4.913-10.529a24.742 24.742 0 0 0 .464-4.58 22.37 22.37 0 0 0-.013-.895l-.001-.026v-.013c-.001-.006-.001-.013-19.986.762-19.985.774-19.986.767-19.986.761v-.013l-.001-.025a23.424 23.424 0 0 1-.01-.354 17.822 17.822 0 0 1 .024-1.264c.033-.577.105-1.28.262-2.076.275-1.4 1.028-4.201 3.344-7.039l30.99 25.291Z"
          mask="url(#a)"
        />
      </symbol>
      <symbol viewBox="0 0 32 33" fill="none" id="clock">
        <ellipse cx="21.704" cy="11.33" rx="1.087" ry="1.085" fill="#fff" />
        <ellipse cx="10.831" cy="11.33" rx="1.087" ry="1.085" fill="#fff" />
        <ellipse cx="10.831" cy="24.351" rx="1.087" ry="1.085" fill="#fff" />
        <ellipse cx="16.268" cy="26.521" rx="1.087" ry="1.085" fill="#fff" />
        <ellipse cx="7.569" cy="17.775" rx="1.087" ry="1.085" fill="#fff" />
        <ellipse cx="24.966" cy="17.775" rx="1.087" ry="1.085" fill="#fff" />
        <ellipse cx="21.704" cy="24.351" rx="1.087" ry="1.085" fill="#fff" />
        <mask id="a" fill="#fff">
          <path
            fill-rule="evenodd"
            clip-rule="evenodd"
            d="M21.422 29.058a1.058 1.058 0 0 1 1.216.196l1.826 1.875a.682.682 0 0 0 .977-.95l-1.357-1.394c-.426-.438-.361-1.15.098-1.552 2.642-2.314 4.318-5.764 4.318-9.619C28.5 10.648 23.023 5 16.268 5 9.512 5 4.036 10.648 4.036 17.614c0 3.815 1.641 7.234 4.236 9.547.452.403.513 1.11.09 1.544l-1.434 1.473a.682.682 0 1 0 .976.951l1.88-1.93a1.058 1.058 0 0 1 1.226-.191 11.878 11.878 0 0 0 5.258 1.221c1.841 0 3.587-.42 5.154-1.17Zm-5.154-.23c6.005 0 10.873-5.02 10.873-11.213S22.273 6.402 16.268 6.402c-6.005 0-10.873 5.02-10.873 11.212 0 6.193 4.868 11.213 10.873 11.213Zm-.76-11.53V9.94a.781.781 0 1 1 1.563 0v8.183c0 .443-.36.803-.803.803a.76.76 0 0 1-.76-.76V17.298Z"
          />
        </mask>
        <path
          fill-rule="evenodd"
          clip-rule="evenodd"
          d="M21.422 29.058a1.058 1.058 0 0 1 1.216.196l1.826 1.875a.682.682 0 0 0 .977-.95l-1.357-1.394c-.426-.438-.361-1.15.098-1.552 2.642-2.314 4.318-5.764 4.318-9.619C28.5 10.648 23.023 5 16.268 5 9.512 5 4.036 10.648 4.036 17.614c0 3.815 1.641 7.234 4.236 9.547.452.403.513 1.11.09 1.544l-1.434 1.473a.682.682 0 1 0 .976.951l1.88-1.93a1.058 1.058 0 0 1 1.226-.191 11.878 11.878 0 0 0 5.258 1.221c1.841 0 3.587-.42 5.154-1.17Zm-5.154-.23c6.005 0 10.873-5.02 10.873-11.213S22.273 6.402 16.268 6.402c-6.005 0-10.873 5.02-10.873 11.212 0 6.193 4.868 11.213 10.873 11.213Zm-.76-11.53V9.94a.781.781 0 1 1 1.563 0v8.183c0 .443-.36.803-.803.803a.76.76 0 0 1-.76-.76V17.298Z"
          fill="#fff"
        />
        <path
          d="m9.784 29.199 2.865 2.79-2.865-2.79Zm1.226-.191 1.765-3.59-1.765 3.59Zm-3.106 2.121L5.04 28.34l2.865 2.79Zm-.976-.95 2.865 2.79-2.865-2.79Zm17.156-1.394-2.865 2.79 2.865-2.79Zm.098-1.552-2.635-3.009 2.635 3.01Zm-15.91-.072L5.61 30.146l2.662-2.985Zm.09 1.544-2.866-2.79 2.866 2.79Zm17.079 1.473 2.866-2.79-2.866 2.79Zm-.977.951 2.866-2.79-2.866 2.79Zm-1.825-1.875-2.866 2.79 2.866-2.79Zm-1.217-.196-1.73-3.606 1.73 3.606Zm-1.65 2.987L21.6 33.92l5.731-5.582-1.826-1.874-5.731 5.58Zm8.535-4.658-1.357-1.393-5.731 5.582 1.356 1.393 5.732-5.582Zm-1.49 2.855c3.49-3.056 5.683-7.595 5.683-12.628h-8c0 2.677-1.16 5.04-2.953 6.61l5.27 6.018ZM32.5 17.614C32.5 8.556 25.348 1 16.268 1v8c4.431 0 8.232 3.74 8.232 8.614h8ZM16.268 1C7.188 1 .036 8.556.036 17.614h8c0-4.874 3.8-8.614 8.232-8.614V1ZM.036 17.614c0 4.98 2.147 9.477 5.574 12.532l5.324-5.97c-1.762-1.572-2.898-3.913-2.898-6.561h-8Zm5.46 8.3-1.434 1.473 5.731 5.582 1.434-1.473-5.73-5.581Zm5.274 8.006 1.88-1.93-5.732-5.582-1.88 1.93 5.732 5.582Zm-1.525-1.323a15.878 15.878 0 0 0 7.023 1.632v-8a7.879 7.879 0 0 1-3.493-.811l-3.53 7.18Zm7.023 1.632c2.456 0 4.792-.56 6.884-1.565l-3.46-7.212c-1.041.499-2.198.777-3.424.777v8Zm0-1.402c8.33 0 14.873-6.928 14.873-15.212h-8c0 4.1-3.192 7.212-6.873 7.212v8ZM31.14 17.615c0-8.285-6.544-15.213-14.873-15.213v8c3.68 0 6.873 3.112 6.873 7.213h8ZM16.268 2.402c-8.33 0-14.873 6.928-14.873 15.212h8c0-4.1 3.192-7.212 6.873-7.212v-8ZM1.395 17.614c0 8.285 6.544 15.213 14.873 15.213v-8c-3.68 0-6.873-3.112-6.873-7.213h-8Zm11.676-.316v.543h8v-.543h-8Zm0 .543v.282h8v-.282h-8Zm6.437.325v-.325h-8v.325h8Zm0-.325v-.543h-8v.543h8Zm0-.543V13.5h-8v3.798h8Zm0-3.798V9.94h-8v3.56h8Zm-6.437-3.56v3.56h8V9.94h-8Zm0 3.56v3.798h8V13.5h-8Zm3.219-8.34a4.781 4.781 0 0 0-4.782 4.78h8a3.219 3.219 0 0 1-3.218 3.22v-8Zm-3.22 12.963a3.197 3.197 0 0 1 3.198-3.197v8a4.803 4.803 0 0 0 4.803-4.803h-8Zm-.42 13.867a2.943 2.943 0 0 1-3.405.607l3.53-7.179c-1.826-.898-4.227-.683-5.857.99l5.731 5.582Zm-8.588 1.93a4.682 4.682 0 0 0 6.708 0l-5.731-5.582a3.318 3.318 0 0 1 4.754 0L4.062 33.92Zm0-6.533a4.682 4.682 0 0 0 0 6.533l5.731-5.582a3.318 3.318 0 0 1 0 4.63l-5.731-5.58Zm22.888-1.393c1.343 1.38.944 3.305-.133 4.248l-5.27-6.018c-1.995 1.748-2.523 5.098-.328 7.352l5.731-5.582ZM16.29 13.16a3.219 3.219 0 0 1-3.22-3.22h8c0-2.64-2.14-4.78-4.78-4.78v8ZM5.61 30.146c-1.064-.948-1.447-2.862-.114-4.231l5.731 5.581c2.18-2.238 1.675-5.565-.293-7.32l-5.324 5.97Zm22.697 3.774a4.682 4.682 0 0 0 0-6.533l-5.732 5.582a3.318 3.318 0 0 1 0-4.63l5.732 5.58Zm-6.708 0a4.682 4.682 0 0 0 6.708 0l-5.732-5.582a3.318 3.318 0 0 1 4.755 0L21.6 33.92Zm-5.331-18.994a3.24 3.24 0 0 1 3.24 3.24h-8a4.76 4.76 0 0 0 4.76 4.76v-8Zm9.236 11.538c-1.616-1.66-3.992-1.886-5.813-1.012l3.46 7.212a2.943 2.943 0 0 1-3.378-.62l5.731-5.58Z"
          mask="url(#a)"
        />
        <path fill="#fff" d="M15.5 6V2H17v4z" />
        <rect x="8.5" y="2" width="15.5" height="1.5" rx=".75" fill="#fff" />
      </symbol>
      <symbol viewBox="0 0 78 80" id="main-promo__icon">
        <path
          d="M64.016 34.713H14.03c-1.754 0-3.182-1.418-3.182-3.16v-9.469c0-1.742 1.428-3.16 3.182-3.16h49.984c1.754 0 3.18 1.418 3.18 3.16v9.469c0 1.742-1.426 3.16-3.18 3.16ZM14.03 21.346a.751.751 0 0 0-.744.738v9.469c0 .407.334.738.744.738h49.984c.41 0 .743-.331.743-.738v-9.469a.75.75 0 0 0-.743-.738H14.03Z"
          fill="#fff"
        />
        <path
          d="M57.045 67.149H20.999c-3.377 0-6.125-2.73-6.125-6.086V33.502c0-.669.546-1.212 1.219-1.212s1.219.543 1.219 1.212v27.56c0 2.021 1.654 3.665 3.687 3.665h36.046c2.032 0 3.686-1.644 3.686-3.664V33.502c0-.669.546-1.212 1.219-1.212.672 0 1.218.543 1.218 1.212v27.56c0 3.357-2.747 6.087-6.123 6.087Z"
          fill="#fff"
        />
        <path
          d="M39.023 67.149a1.215 1.215 0 0 1-1.22-1.211V33.502c0-.669.547-1.212 1.22-1.212.672 0 1.218.543 1.218 1.212v32.435c0 .67-.545 1.212-1.218 1.212ZM23.811 21.341c-3.814-2.054-5.238-6.808-3.173-10.6 2.064-3.789 6.848-5.204 10.665-3.154 5.814 3.13 8.954 11.86 9.084 12.23l-2.3.804c-.029-.083-2.961-8.222-7.944-10.904-2.635-1.415-5.937-.438-7.36 2.177-1.426 2.618-.444 5.9 2.19 7.318l-1.162 2.13Z"
          fill="#fff"
        />
        <path
          d="m54.231 21.341-1.16-2.13a5.376 5.376 0 0 0 2.622-3.207 5.327 5.327 0 0 0-.431-4.109 5.382 5.382 0 0 0-3.226-2.604 5.426 5.426 0 0 0-4.134.426c-4.982 2.682-7.915 10.82-7.944 10.903l-2.3-.803c.131-.37 3.27-9.101 9.084-12.23a7.859 7.859 0 0 1 5.99-.617 7.8 7.8 0 0 1 4.674 3.771 7.72 7.72 0 0 1 .623 5.953 7.788 7.788 0 0 1-3.798 4.647ZM61.95 50.931H16.093a1.215 1.215 0 0 1-1.219-1.21c0-.67.546-1.212 1.219-1.212H61.95c.672 0 1.218.543 1.218 1.211 0 .669-.545 1.211-1.218 1.211Z"
          fill="#fff"
        />
      </symbol>
      <symbol viewBox="0 0 27 17" id="footer-contacts__vk">
        <path
          fill-rule="evenodd"
          d="M0 2.339C0 1.484.515 1.023 1.545.956l3.97.025a.52.52 0 0 1 .533.377c.409 1.257.866 2.343 1.372 3.257.506.913 1.168 1.965 1.985 3.156.071.15.187.226.346.226.125 0 .222-.059.293-.176l.08-.277.027-4.35c0-.302-.075-.503-.226-.604-.151-.1-.431-.176-.84-.226-.32-.05-.48-.235-.48-.553 0-.067.01-.118.027-.151C9.005.57 10.072.025 11.83.025L13.322 0c.675 0 1.234.16 1.678.478.444.318.666.821.666 1.509v5.708c.125.084.24.126.347.126.266 0 .497-.15.692-.453 1.954-2.582 3.011-4.308 3.17-5.18 0-.017.019-.059.054-.126.125-.251.329-.47.613-.654.284-.184.533-.31.746-.377a.554.554 0 0 1 .24-.05h4.13l.266.025c.355 0 .63.16.826.478.07.1.12.21.146.327.027.117.045.234.054.352.009.117.013.184.013.2v.177c-.124.687-.44 1.42-.946 2.2-.506.78-1.15 1.622-1.931 2.528-.782.905-1.27 1.5-1.466 1.785-.16.201-.24.386-.24.554 0 .134.071.285.213.452l3.89 4.627c.213.269.32.562.32.88 0 .386-.16.705-.48.956-.32.252-.701.394-1.145.428l-.453.025h-4.05a.855.855 0 0 0-.106.012.862.862 0 0 1-.107.013c-.39 0-.755-.16-1.092-.478-.125-.134-.96-1.123-2.505-2.967a1.387 1.387 0 0 0-.373-.327c-.07.268-.164.654-.28 1.157-.115.503-.2.863-.253 1.081l-.08.428c-.177.586-.55.938-1.119 1.056l-.373.025h-2.61c-1.475 0-2.945-.637-4.41-1.911-1.466-1.275-2.784-2.922-3.957-4.942C2.238 8.102 1.146 5.75.133 3.068A1.916 1.916 0 0 1 0 2.338Zm16.013 6.513c-.373 0-.71-.096-1.013-.29-.302-.192-.453-.456-.453-.791V1.987c0-.336-.089-.575-.266-.717-.178-.143-.489-.214-.933-.214l-1.518.05c-.764 0-1.341.126-1.732.378.781.352 1.172.922 1.172 1.71V7.62a1.5 1.5 0 0 1-.533 1.043 1.59 1.59 0 0 1-1.066.415c-.532 0-.94-.243-1.225-.729C7.06 6.371 6.03 4.493 5.356 2.716l-.24-.654-3.544-.025c-.231 0-.36.013-.386.038-.027.025-.04.096-.04.213 0 .151.017.31.053.478l.56 1.409c1.491 3.638 3.112 6.505 4.862 8.6 1.75 2.096 3.468 3.144 5.155 3.144h2.665c.106 0 .186-.03.24-.088.053-.06.097-.172.133-.34l.053-.251.506-2.213c.142-.302.267-.503.373-.604a.975.975 0 0 1 .693-.277c.426 0 .861.243 1.305.73l2.265 2.716c.142.218.293.327.453.327h4.396c.533 0 .8-.126.8-.378a.466.466 0 0 0-.08-.251l-3.864-4.552c-.302-.352-.453-.73-.453-1.131 0-.403.142-.788.427-1.157.23-.336.679-.893 1.345-1.673a37.63 37.63 0 0 0 1.745-2.188c.498-.679.826-1.295.986-1.848l.08-.327a.371.371 0 0 1-.027-.163.574.574 0 0 0-.026-.189h-4.183c-.267.1-.48.252-.64.453l-.16.478c-.444 1.156-1.607 2.942-3.49 5.356a1.892 1.892 0 0 1-1.305.503Z"
        />
      </symbol>
      <symbol viewBox="0 0 28 22" id="footer-contacts__yt">
        <path
          fill-rule="evenodd"
          d="m17.85 10.793-5.236-3.491a.655.655 0 0 0-1.014.545v6.982a.654.654 0 0 0 1.014.546l5.237-3.491a.655.655 0 0 0 0-1.091Zm-4.94 2.814V9.07l3.403 2.27-3.404 2.268Zm12.48-8.563a2.4 2.4 0 0 0-1.452-1.637C20.218 1.978 14.251 2 14 2c-.25 0-6.218-.022-9.938 1.407A2.4 2.4 0 0 0 2.61 5.044C2.327 6.113 2 8.076 2 11.338c0 3.262.327 5.226.61 6.295a2.4 2.4 0 0 0 1.452 1.636c3.72 1.43 9.687 1.407 9.938 1.407h.076c.753 0 6.317-.043 9.862-1.407a2.4 2.4 0 0 0 1.451-1.636c.284-1.07.611-3.033.611-6.295s-.327-5.225-.61-6.294Zm-1.266 12.261a1.09 1.09 0 0 1-.655.742c-3.49 1.342-9.404 1.32-9.469 1.32-.066 0-5.978.022-9.47-1.32a1.09 1.09 0 0 1-.654-.742c-.261-1.003-.567-2.847-.567-5.967 0-3.12.306-4.963.567-5.967a1.09 1.09 0 0 1 .655-.742C8.02 3.287 13.935 3.31 14 3.31c.066 0 5.978-.022 9.47 1.32a1.092 1.092 0 0 1 .654.742c.262 1.004.567 2.847.567 5.967 0 3.12-.305 4.964-.567 5.967Z"
        />
      </symbol>
      <symbol viewBox="0 0 28 22" id="footer-contacts__tg">
        <path
          fill-rule="evenodd"
          clip-rule="evenodd"
          d="M23.46 3.153c.18.15.265.382.227.611l-2.626 15.757a.657.657 0 0 1-1.012.439l-7.878-5.253a.657.657 0 0 1-.149-.956l2.611-3.263-4.36 2.906a.657.657 0 0 1-.658.041L4.363 10.81a.657.657 0 0 1 .073-1.205l18.383-6.566a.657.657 0 0 1 .642.115Zm-17.134 7.17 3.536 1.768 7.561-5.041a.656.656 0 0 1 .877.956l-4.805 6.006 6.438 4.292L22.208 4.65 6.326 10.323Z"
        />
      </symbol>
      <symbol viewBox="0 0 27 34" id="copyright__logo-link-icon">
        <path
          fill-rule="evenodd"
          d="M13.643.016 13.5 0 0 1.407v24.606L13.5 34 27 26.013V1.407L13.643.016Zm11.591 25L13.5 31.956 1.766 25.015V14.93l11.685 6.916.02 1.253-8.017-4.743-.011 1.225 8.046 4.809.02 1.286-8.045-4.758-.01 1.226L13.5 26.95l8.124-4.833V16.91l3.62-2.15-.01 10.256Zm0-11.564-3.22 1.88-1.482.875-7.065-4.187-.011 1.225 6.04 3.573-.053.031-.13.076-.86.492-4.986-2.948-.011 1.225 3.936 2.328-.933.61-.021.012-2.971-1.742-.011 1.225 1.947 1.135-1.988 1.186-11.618-6.872 11.638-6.958 11.8 6.834Zm0-1.225L13.44 5.31 1.766 12.22V2.99L13.5 1.764 25.234 2.99v9.237Z"
        />
      </symbol>
      <symbol viewBox="0 0 60 60" fill="none" id="catalog-list__item-more-icon">
        <path
          stroke="#D3D3D3"
          stroke-width="2"
          d="M31 0v60M60 31H0"
        />
       </symbol>
    </svg>
